<?xml version="1.0" encoding="iso-8859-1"?>
<!-- Generator: Adobe Illustrator 19.0.0, SVG Export Plug-In . SVG Version: 6.00 Build 0)  -->
<svg version="1.1" id="Capa_1" xmlns="http://www.w3.org/2000/svg" xmlns:xlink="http://www.w3.org/1999/xlink" x="0px" y="0px"
	 viewBox="0 0 375 375" style="enable-background:new 0 0 375 375;" xml:space="preserve">
<g id="XMLID_517_">
	<rect id="XMLID_63_" x="162.5" y="32.5" style="fill:#6DA8D6;" width="50" height="270"/>
	<rect id="XMLID_62_" y="292.5" style="fill:#6DA8D6;" width="375" height="50"/>
	<g id="XMLID_525_">
		<polygon id="XMLID_526_" style="fill:#6DA8D6;" points="7.5,292.859 30.801,262.5 54.103,292.859 		"/>
		<polygon id="XMLID_527_" style="fill:#6DA8D6;" points="60.801,292.859 84.103,262.5 107.404,292.859 		"/>
		<polygon id="XMLID_530_" style="fill:#6DA8D6;" points="114.103,292.859 137.404,262.5 160.705,292.859 		"/>
	</g>
	<g id="XMLID_536_">
		<g id="XMLID_532_">
			<polygon id="XMLID_533_" style="fill:#2974A8;" points="214.295,292.859 237.596,262.5 260.897,292.859 			"/>
			<polygon id="XMLID_534_" style="fill:#2974A8;" points="267.596,292.859 290.897,262.5 314.199,292.859 			"/>
			<polygon id="XMLID_535_" style="fill:#2974A8;" points="320.897,292.859 344.199,262.5 367.5,292.859 			"/>
		</g>
	</g>
	<path id="XMLID_789_" style="fill:#D77258;" d="M101.405,155.686c3.852,0.746,7.393,2.083,10.625,4.008
		c3.229,1.928,5.993,4.351,8.295,7.269c2.298,2.921,4.068,6.276,5.311,10.065c1.242,3.792,1.864,7.861,1.864,12.209
		c0,5.842-1.181,11.09-3.541,15.75c-2.361,4.66-5.748,8.635-10.159,11.929c-4.412,3.291-9.723,5.839-15.936,7.642
		c-6.214,1.8-13.172,2.703-20.875,2.703c-18.89,0-33.676-5.531-44.361-16.589l16.029-21.249c3.356,3.48,7.177,6.122,11.464,7.922
		c4.287,1.803,9.413,2.703,15.377,2.703c14.041,0,21.062-5.155,21.062-15.47c0-5.591-2.082-9.814-6.244-12.674
		c-4.165-2.857-10.718-4.287-19.664-4.287h-5.592V146.18h6.151c6.957,0,12.395-1.427,16.31-4.287
		c3.913-2.857,5.872-6.646,5.872-11.37c0-4.1-1.43-7.205-4.287-9.319c-2.86-2.112-6.65-3.169-11.371-3.169
		c-5.096,0-9.723,1.212-13.885,3.635c-4.165,2.423-7.674,5.872-10.531,10.345l-18.825-21.621c1.986-2.61,4.594-5.033,7.828-7.269
		c3.229-2.237,6.895-4.13,10.997-5.686c4.1-1.552,8.509-2.764,13.233-3.635c4.721-0.868,9.567-1.304,14.538-1.304
		c6.585,0,12.611,0.777,18.08,2.33c5.467,1.555,10.126,3.791,13.979,6.71c3.85,2.921,6.832,6.401,8.946,10.437
		c2.113,4.04,3.169,8.545,3.169,13.514c0,3.728-0.592,7.269-1.77,10.624c-1.183,3.355-2.829,6.401-4.94,9.133
		c-2.114,2.734-4.63,5.003-7.549,6.803C108.085,153.854,104.883,155.066,101.405,155.686z"/>
	<path id="XMLID_795_" style="fill:#D14F4E;" d="M347.5,194.467v30.673h-92.021v-30.673h30.249v-63.21
		c-1.279,1.704-3.268,3.444-5.964,5.218c-2.699,1.777-5.719,3.408-9.054,4.899c-3.338,1.491-6.746,2.699-10.224,3.622
		c-3.483,0.926-6.57,1.385-9.266,1.385v-31.526c2.27,0,5.218-0.778,8.841-2.343c3.621-1.561,7.204-3.441,10.757-5.645
		c3.548-2.2,6.743-4.437,9.585-6.709c2.839-2.27,4.612-4.117,5.326-5.538h34.719v99.848H347.5z"/>
	<rect id="XMLID_799_" x="187.5" y="32.5" style="fill:#2974A8;" width="25" height="270"/>
	<rect id="XMLID_802_" x="187.5" y="292.5" style="fill:#2974A8;" width="187.5" height="50"/>
</g>
<g>
</g>
<g>
</g>
<g>
</g>
<g>
</g>
<g>
</g>
<g>
</g>
<g>
</g>
<g>
</g>
<g>
</g>
<g>
</g>
<g>
</g>
<g>
</g>
<g>
</g>
<g>
</g>
<g>
</g>
</svg>
