<?xml version="1.0" encoding="UTF-8" standalone="no"?>
<svg
   xmlns:dc="http://purl.org/dc/elements/1.1/"
   xmlns:cc="http://creativecommons.org/ns#"
   xmlns:rdf="http://www.w3.org/1999/02/22-rdf-syntax-ns#"
   xmlns:svg="http://www.w3.org/2000/svg"
   xmlns="http://www.w3.org/2000/svg"
   xmlns:sodipodi="http://sodipodi.sourceforge.net/DTD/sodipodi-0.dtd"
   xmlns:inkscape="http://www.inkscape.org/namespaces/inkscape"
   version="1.1"
   x="0px"
   y="0px"
   viewBox="0 0 124.773 128"
   enable-background="new 0 0 128 128"
   xml:space="preserve"
   id="svg2"
   inkscape:version="0.91 r13725"
   sodipodi:docname="silver.svg"
   width="124.773"
   height="128"><metadata
     id="metadata16"><rdf:RDF><cc:Work
         rdf:about=""><dc:format>image/svg+xml</dc:format><dc:type
           rdf:resource="http://purl.org/dc/dcmitype/StillImage" /><dc:title></dc:title></cc:Work></rdf:RDF></metadata><defs
     id="defs14" /><sodipodi:namedview
     pagecolor="#ffffff"
     bordercolor="#666666"
     borderopacity="1"
     objecttolerance="10"
     gridtolerance="10"
     guidetolerance="10"
     inkscape:pageopacity="0"
     inkscape:pageshadow="2"
     inkscape:window-width="1920"
     inkscape:window-height="1053"
     id="namedview12"
     showgrid="false"
     fit-margin-top="0"
     fit-margin-left="0"
     fit-margin-right="0"
     fit-margin-bottom="0"
     inkscape:zoom="3.0270784"
     inkscape:cx="157.40584"
     inkscape:cy="53.410232"
     inkscape:window-x="0"
     inkscape:window-y="27"
     inkscape:window-maximized="1"
     inkscape:current-layer="svg2" /><g
     id="g4"
     transform="translate(-1.6139493,0)"
     style="fill:#b0afa6;fill-opacity:1"><path
       d="M 122.714,9.221 C 120.253,6.693 116.944,5.3 113.4,5.3 l -14.62,0 C 98.821,3.569 98.844,1.808 98.844,0 L 63.999,0 29.155,0 c 0,1.808 0.024,3.568 0.064,5.3 l -14.616,0 c -3.548,0 -6.856,1.393 -9.318,3.922 -2.46,2.529 -3.763,5.874 -3.666,9.419 0.034,1.244 1.05,30.652 20.629,47.544 16.441,14.188 28.915,17.278 34.642,17.894 l 0,12.631 -16.711,13.867 0,17.423 23.821,0 23.82,0 0,-17.424 -16.712,-13.867 0,-12.63 c 5.729,-0.615 18.201,-3.706 34.645,-17.895 19.576,-16.892 20.596,-46.3 20.629,-47.544 0.096,-3.546 -1.207,-6.89 -3.668,-9.419 z M 7.384,18.484 c -0.054,-1.975 0.67,-3.836 2.035,-5.24 1.365,-1.403 3.206,-2.176 5.184,-2.176 l 14.826,0 C 31.473,51.822 44.606,70.071 51.945,77.17 46.03,75.427 37.056,71.346 26.015,61.818 8.393,46.612 7.393,18.763 7.384,18.484 Z m 94.603,43.334 C 90.935,71.354 81.96,75.433 76.05,77.173 83.39,70.076 96.527,51.828 98.571,11.069 l 14.828,0 c 1.975,0 3.816,0.772 5.182,2.175 1.367,1.403 2.088,3.265 2.035,5.241 -0.008,0.279 -0.963,28.087 -18.629,43.333 z"
       id="path6"
       inkscape:connector-curvature="0"
       style="fill:#b0afa6;fill-opacity:1" /></g></svg>