<?xml version="1.0" encoding="UTF-8" standalone="no"?>
<svg
   xmlns:dc="http://purl.org/dc/elements/1.1/"
   xmlns:cc="http://creativecommons.org/ns#"
   xmlns:rdf="http://www.w3.org/1999/02/22-rdf-syntax-ns#"
   xmlns:svg="http://www.w3.org/2000/svg"
   xmlns="http://www.w3.org/2000/svg"
   xmlns:sodipodi="http://sodipodi.sourceforge.net/DTD/sodipodi-0.dtd"
   xmlns:inkscape="http://www.inkscape.org/namespaces/inkscape"
   version="1.1"
   x="0px"
   y="0px"
   viewBox="0 0 57.250351 99.999962"
   enable-background="new 0 0 100 100"
   xml:space="preserve"
   id="svg2"
   inkscape:version="0.91 r13725"
   sodipodi:docname="winner.svg"
   width="57.250351"
   height="99.999962"><metadata
     id="metadata118"><rdf:RDF><cc:Work
         rdf:about=""><dc:format>image/svg+xml</dc:format><dc:type
           rdf:resource="http://purl.org/dc/dcmitype/StillImage" /><dc:title></dc:title></cc:Work></rdf:RDF></metadata><defs
     id="defs116" /><sodipodi:namedview
     pagecolor="#ffffff"
     bordercolor="#666666"
     borderopacity="1"
     objecttolerance="10"
     gridtolerance="10"
     guidetolerance="10"
     inkscape:pageopacity="0"
     inkscape:pageshadow="2"
     inkscape:window-width="1920"
     inkscape:window-height="1053"
     id="namedview114"
     showgrid="false"
     fit-margin-top="0"
     fit-margin-left="0"
     fit-margin-right="0"
     fit-margin-bottom="0"
     inkscape:zoom="4.556514"
     inkscape:cx="2.6201055"
     inkscape:cy="39.724576"
     inkscape:window-x="0"
     inkscape:window-y="27"
     inkscape:window-maximized="1"
     inkscape:current-layer="svg2" /><g
     display="none"
     id="g4"
     style="display:none"
     transform="translate(-20.190789,0)"><rect
       x="-192"
       display="inline"
       width="185"
       height="99"
       id="rect6"
       y="0"
       style="display:inline" /><rect
       y="-36"
       display="inline"
       width="100"
       height="30"
       id="rect8"
       x="0"
       style="display:inline" /><text
       transform="translate(66,-19.5)"
       display="inline"
       font-size="2.4"
       id="text10"
       style="font-size:2.4000001px;font-family:Helvetica;display:inline;fill:#000000">http://thenounproject.com</text>
<text
       transform="translate(7.166,-24.5)"
       display="inline"
       font-size="6.1578"
       id="text12"
       style="font-size:6.1578002px;font-family:Helvetica-Bold;display:inline;fill:#000000">The Noun Project</text>
<text
       transform="translate(8.2861,-19.7002)"
       display="inline"
       font-size="4"
       id="text14"
       style="font-size:4px;font-family:Helvetica-Bold;display:inline;fill:#000000">Icon Template</text>
<text
       transform="translate(-178.5,10.5)"
       display="inline"
       font-size="6.1578"
       id="text16"
       style="font-size:6.1578002px;font-family:Helvetica-Bold;display:inline;fill:#000000">Reminders</text>
<line
       display="inline"
       stroke-miterlimit="10"
       x1="8"
       y1="-14.5"
       x2="18"
       y2="-14.5"
       id="line18"
       style="display:inline;fill:#000000;stroke:#ffffff;stroke-miterlimit:10" /><line
       display="inline"
       stroke-miterlimit="10"
       x1="-179"
       y1="16.5"
       x2="-162"
       y2="16.5"
       id="line20"
       style="display:inline;fill:#000000;stroke:#ffffff;stroke-miterlimit:10" /><g
       display="inline"
       id="g22"
       style="display:inline"><g
         id="g24"><g
           id="g26"><rect
             x="-170.802"
             y="31.318001"
             width="8.7209997"
             height="8.6420002"
             id="rect28"
             style="fill:#000000" /><path
             d="m -164.455,42.312 4.747,0 0,-4.703 -4.747,0 0,4.703 z m 5.189,0.437 -5.63,0 0,-5.579 5.63,0 0,5.579 0,0 z m -6.955,1.313 8.279,0 0,-8.203 -8.279,0 0,8.203 0,0 z m 8.721,0.438 -9.163,0 0,-9.079 9.163,0 0,9.079 0,0 z"
             id="path30"
             inkscape:connector-curvature="0"
             style="fill:#000000" /><polygon
             points="-157.871,35.929 -166.149,44.133 -166.292,43.991 -158.013,35.787 "
             id="polygon32"
             style="fill:#000000" /></g></g></g><rect
       x="-179"
       y="58"
       display="inline"
       width="35"
       height="32.5"
       id="rect34"
       style="display:inline;fill:none" /><text
       transform="translate(-179,60.1572)"
       display="inline"
       font-size="3"
       id="text36"
       style="font-size:3px;font-family:Helvetica-Bold;display:inline;fill:#000000">Strokes</text>
<text
       transform="translate(-179,65.1572)"
       display="inline"
       font-size="2.4"
       id="text38"
       style="font-size:2.4000001px;font-family:Helvetica;display:inline;fill:#000000">Try to keep strokes at 4px</text>
<text
       transform="translate(-179,70.1572)"
       display="inline"
       font-size="2.4"
       id="text40"
       style="font-size:2.4000001px;font-family:Helvetica;display:inline;fill:#000000">Minimum stroke weight is 2px</text>
<text
       transform="translate(-179,74.6572)"
       display="inline"
       font-size="2.4"
       id="text42"
       style="font-size:2.4000001px;font-family:Helvetica;display:inline;fill:#000000">For thicker strokes use even </text>
<text
       transform="translate(-179,77.6572)"
       display="inline"
       font-size="2.4"
       id="text44"
       style="font-size:2.4000001px;font-family:Helvetica;display:inline;fill:#000000">numbers: 6px, 8px etc.</text>
<text
       transform="translate(-179,82.1572)"
       display="inline"
       font-size="2.4"
       id="text46"
       style="font-size:2.4000001px;font-family:Helvetica-Bold;display:inline;fill:#000000">Remember to expand strokes </text>
<text
       transform="translate(-179,85.1572)"
       display="inline"
       font-size="2.4"
       id="text48"
       style="font-size:2.4000001px;font-family:Helvetica-Bold;display:inline;fill:#000000">before saving as an SVG </text>
<rect
       x="-136.5"
       y="58"
       display="inline"
       width="35"
       height="32.5"
       id="rect50"
       style="display:inline;fill:none" /><text
       transform="translate(-136.5,60.1572)"
       display="inline"
       font-size="3"
       id="text52"
       style="font-size:3px;font-family:Helvetica-Bold;display:inline;fill:#000000">Size</text>
<text
       transform="translate(-136.5,65.1572)"
       display="inline"
       font-size="2.4"
       id="text54"
       style="font-size:2.4000001px;font-family:Helvetica;display:inline;fill:#000000">Cannot be wider or taller than </text>
<text
       transform="translate(-136.5,68.6572)"
       display="inline"
       font-size="2.4"
       id="text56"
       style="font-size:2.4000001px;font-family:Helvetica;display:inline;fill:#000000">100px (artboard size)</text>
<text
       transform="translate(-136.5,73.6572)"
       display="inline"
       font-size="2.4"
       id="text58"
       style="font-size:2.4000001px;font-family:Helvetica;display:inline;fill:#000000">Scale your icon to fill as much of </text>
<text
       transform="translate(-136.5,76.6572)"
       display="inline"
       font-size="2.4"
       id="text60"
       style="font-size:2.4000001px;font-family:Helvetica;display:inline;fill:#000000">the artboard as possible</text>
<rect
       x="-94"
       y="58"
       display="inline"
       width="35"
       height="32.5"
       id="rect62"
       style="display:inline;fill:none" /><text
       transform="translate(-94,60.1572)"
       display="inline"
       font-size="3"
       id="text64"
       style="font-size:3px;font-family:Helvetica-Bold;display:inline;fill:#000000">Ungroup</text>
<text
       transform="translate(-94,65.1572)"
       display="inline"
       font-size="2.4"
       id="text66"
       style="font-size:2.4000001px;font-family:Helvetica;display:inline;fill:#000000">If your design has more than one </text>
<text
       transform="translate(-94,68.1572)"
       display="inline"
       font-size="2.4"
       id="text68"
       style="font-size:2.4000001px;font-family:Helvetica;display:inline;fill:#000000">shape, make sure to ungroup</text>
<rect
       x="-50"
       y="58"
       display="inline"
       width="35"
       height="32.5"
       id="rect70"
       style="display:inline;fill:none" /><text
       transform="translate(-50,60.1572)"
       display="inline"
       font-size="3"
       id="text72"
       style="font-size:3px;font-family:Helvetica-Bold;display:inline;fill:#000000">Save as</text>
<text
       transform="translate(-50,65.1572)"
       display="inline"
       font-size="2.4"
       id="text74"
       style="font-size:2.4000001px;font-family:Helvetica;display:inline;fill:#000000">Save as .SVG and make sure </text>
<text
       transform="translate(-50,68.1572)"
       display="inline"
       font-size="2.4"
       id="text76"
       style="font-size:2.4000001px;font-family:Helvetica;display:inline;fill:#000000">“Use Artboards” is checked</text>
<text
       transform="matrix(1.0074,0,0,1,-125.542,30.5938)"
       display="inline"
       font-size="2.5731"
       id="text78"
       style="font-size:2.57310009px;font-family:Helvetica;display:inline;fill:#000000">100px</text>
<text
       transform="matrix(1.0074,0,0,1,-41,39)"
       display="inline"
       font-size="5.1462"
       id="text80"
       style="font-size:5.14620018px;font-family:Helvetica-Bold;display:inline;fill:#000000">.SVG</text>
<rect
       x="-126.514"
       y="34.814999"
       display="inline"
       width="10.261"
       height="10.185"
       id="rect82"
       style="display:inline;fill:#000000" /><rect
       x="-126.477"
       y="31.766001"
       display="inline"
       width="0.52200001"
       height="2.3369999"
       id="rect84"
       style="display:inline;fill:#000000" /><rect
       x="-116.812"
       y="31.766001"
       display="inline"
       width="0.523"
       height="2.3369999"
       id="rect86"
       style="display:inline;fill:#000000" /><rect
       x="-127"
       y="32.337002"
       display="inline"
       width="11.233"
       height="0.57200003"
       id="rect88"
       style="display:inline;fill:#000000" /><g
       display="inline"
       id="g90"
       style="display:inline"><rect
         x="-83.805"
         y="33.844002"
         width="10.305"
         height="10.156"
         id="rect92"
         style="fill:#000000" /><rect
         x="-76.808998"
         y="28.707001"
         width="3.3080001"
         height="3.2609999"
         id="rect94"
         style="fill:#000000" /></g><rect
       x="-178.5"
       y="22.5"
       display="inline"
       stroke-miterlimit="10"
       width="30"
       height="30"
       id="rect96"
       style="display:inline;fill:#000000;stroke:#ffffff;stroke-miterlimit:10" /><rect
       x="-136.5"
       y="22.5"
       display="inline"
       stroke-miterlimit="10"
       width="30"
       height="30"
       id="rect98"
       style="display:inline;fill:#000000;stroke:#ffffff;stroke-miterlimit:10" /><rect
       x="-93.5"
       y="22.5"
       display="inline"
       stroke-miterlimit="10"
       width="30"
       height="30"
       id="rect100"
       style="display:inline;fill:#000000;stroke:#ffffff;stroke-miterlimit:10" /><rect
       x="-49.5"
       y="22.5"
       display="inline"
       stroke-miterlimit="10"
       width="30"
       height="30"
       id="rect102"
       style="display:inline;fill:#000000;stroke:#ffffff;stroke-miterlimit:10" /></g><g
     id="g3446"
     style="opacity:0.23800001"
     transform="matrix(-1,0,0,1,57.250352,0)"><path
       inkscape:connector-curvature="0"
       id="path104"
       d="m 52.206211,2.109 c -0.278,-1.297 -0.53,-2.109 -0.53,-2.109 l -16.673,4.468 c 0,0 0.187,0.83 0.595,2.091 l -4.618,1.237 0.277,0.864 c 0.029,0.088 2.854,8.566 10.313,8.133 0.707,0.622 1.48,1.154 2.32,1.548 l 0.017,-0.005 c 0.189,0.108 0.391,0.2 0.595,0.282 -0.089,0.229 -0.114,0.506 -0.039,0.789 0.16,0.595 0.674,0.973 1.148,0.846 l 1.485,-0.397 0.769,2.869 c -2.369,1.094 -3.688,3.754 -2.989,6.362 l 10.56,-2.829 c -0.699,-2.608 -3.17,-4.253 -5.771,-4.015 l -0.768,-2.869 1.485,-0.398 c 0.478,-0.127 0.733,-0.713 0.573,-1.308 -0.074,-0.282 -0.235,-0.512 -0.429,-0.666 0.136,-0.173 0.263,-0.351 0.37,-0.538 l 0.018,-0.004 c 0.533,-0.762 0.935,-1.609 1.238,-2.501 6.677,-3.355 4.885,-12.111 4.865,-12.201 l -0.192,-0.887 -4.619,1.238 z m -18.989,6.878 2.956,-0.791 c 0.785,2.082 1.996,4.675 3.706,6.814 -3.882,-0.617 -5.919,-4.315 -6.662,-6.023 z m 19.508,2.582 c 0.411,-2.708 0.163,-5.56 -0.198,-7.757 l 2.956,-0.791 c 0.213,1.851 0.297,6.071 -2.758,8.548 z" /><circle
       id="circle106"
       r="7.4990001"
       cy="22.472"
       cx="15.785213" /><path
       inkscape:connector-curvature="0"
       id="path108"
       d="m 26.986211,44.055 c 2.666,0.19 3.998,0.904 5.854,0.904 1.854,0 2.996,-1.142 4.854,-2.998 1.855,-1.856 6.544,-6.465 6.544,-6.465 0.996,-1.121 0.815,-2.664 -0.269,-3.72 -1.116,-1.087 -2.902,-1.064 -3.989,0.051 l -0.002,-0.002 c 0,0 -4.997,4.854 -5.854,5.71 -0.856,0.857 -2.417,0.805 -3.145,0.571 -2.168,-0.697 -5.564,-1.713 -5.564,-1.713 0,0 11.563,-6.046 13.848,-7.306 2.283,-1.259 2.431,-3.168 1.538,-4.964 -0.913,-1.831 -3.137,-2.574 -4.966,-1.663 l 0,0.011 c 0,0 -20.983,10.782 -23.553,11.781 -2.5699998,1 -3.8539998,5.14 -3.9969998,11.135 -0.143,5.995 -1.582,18.634 -0.713,21.413 1.146,3.674 4.2819998,9.422 4.9959998,10.707 0.714,1.284 -11.81899978,16.515 -11.99499978,17.011 -1.002,1.551 -0.668,3.634 0.82699998,4.765 1.553,1.171 3.749,0.875 4.94,-0.65 0.031,0 12.3179998,-15.258 13.6749998,-16.616 1.957,-1.957 1.118,-5.509 0.405,-7.223 -0.714,-1.711 -2.312,-7.247 -2.57,-8.279 -0.476,-1.903 2.444,-3.283 5.434,-0.713 2.988,2.569 7.696,6.139 7.696,6.139 0,0 1.427,1.143 0.718,3.427 -0.709,2.282 -4.103,11.145 -4.103,11.145 -0.513,1.866 0.554,3.809 2.417,4.358 1.886,0.556 3.862,-0.522 4.417,-2.408 l -0.006,-0.002 c 0.27,-0.795 5.28,-15.565 5.696,-17.233 0.429,-1.713 -1.428,-4.712 -3.283,-5.996 -1.855,-1.284 -10.421,-8.28 -10.992,-8.708 -0.571,-0.428 -1,-3.141 -1,-4.14 10e-4,-1.001 0.278,-8.462 2.142,-8.329 z" /></g></svg>